<svg width="31" height="28" viewBox="0 0 31 28" fill="none" xmlns="http://www.w3.org/2000/svg">
<path d="M29.1081 12.2432V1.84324C29.1081 1.6196 29.0193 1.40512 28.8611 1.24698C28.703 1.08884 28.4885 1 28.2649 1H1.84324C1.6196 1 1.40512 1.08884 1.24698 1.24698C1.08884 1.40512 1 1.6196 1 1.84324V12.2432M29.1081 12.2432H1M29.1081 12.2432L27.9978 15.8748C27.8221 16.4505 27.4661 16.9546 26.9824 17.3129C26.4986 17.6711 25.9127 17.8646 25.3107 17.8649H23.4865M1 12.2432L2.11027 15.8748C2.28604 16.4505 2.64199 16.9546 3.12574 17.3129C3.60948 17.6711 4.19545 17.8646 4.79741 17.8649H6.62162M23.4865 6.62162H24.8919M11.5405 17.1622C11.5405 17.1622 11.5405 27 6.62162 27M18.5676 17.1622C18.5676 17.1622 18.5676 27 23.4865 27M15.0541 17.1622V27" stroke="black" stroke-width="2" stroke-linecap="round" stroke-linejoin="round"/>
</svg>
