<svg width="30" height="29" viewBox="0 0 30 29" fill="none" xmlns="http://www.w3.org/2000/svg">
<path d="M29.7091 17.1178C29.3631 15.8143 28.7194 14.6107 27.8294 13.6032C26.9394 12.5958 25.8279 11.8125 24.5839 11.3161C23.34 10.8198 21.998 10.6242 20.6656 10.7449C19.3332 10.8657 18.0473 11.2994 16.911 12.0115L19.2515 2.58525C19.3096 2.35105 19.2933 2.10438 19.2049 1.88004C19.1165 1.65571 18.9605 1.46504 18.7589 1.33495C17.7872 0.716072 16.7021 0.30067 15.568 0.113463C14.4339 -0.0737442 13.2741 -0.0289316 12.1575 0.245234C11.041 0.5194 9.99053 1.01732 9.06866 1.70936C8.14678 2.4014 7.37233 3.27342 6.7914 4.27353C6.21047 5.27364 5.83492 6.38141 5.6871 7.53091C5.53928 8.68042 5.62222 9.84817 5.93097 10.9647C6.23972 12.0812 6.76797 13.1237 7.4843 14.03C8.20063 14.9364 9.0904 15.6882 10.1007 16.2406L0.836959 18.9097C0.606817 18.9758 0.403066 19.1132 0.254457 19.3024C0.105848 19.4916 0.0198843 19.723 0.00869576 19.9641C-0.079227 21.9316 0.501706 23.8704 1.6553 25.4595C2.80889 27.0485 4.46594 28.1924 6.35205 28.7018C7.07953 28.8988 7.82941 28.9991 8.58265 29C9.73045 28.9969 10.866 28.7616 11.9219 28.3078C12.9779 27.854 13.9329 27.1912 14.7303 26.3584C15.5276 25.5256 16.1512 24.5399 16.5641 23.4596C16.9769 22.3793 17.1706 21.2265 17.1338 20.0693L24.0569 26.8278C24.2291 26.9958 24.4492 27.105 24.6863 27.1399C24.9233 27.1748 25.1652 27.1337 25.3778 27.0223C27.1101 26.1157 28.4836 24.6398 29.2712 22.8388C30.0588 21.0377 30.2133 19.0195 29.7091 17.1178ZM12.4298 16.1095C12.4298 15.6537 12.5638 15.2081 12.8149 14.8291C13.0659 14.4501 13.4228 14.1547 13.8403 13.9803C14.2578 13.8058 14.7172 13.7602 15.1604 13.8491C15.6036 13.938 16.0108 14.1575 16.3303 14.4799C16.6498 14.8022 16.8675 15.2128 16.9556 15.6599C17.0438 16.107 16.9985 16.5704 16.8256 16.9915C16.6527 17.4126 16.3598 17.7726 15.9841 18.0258C15.6083 18.2791 15.1666 18.4142 14.7147 18.4142C14.1087 18.4142 13.5275 18.1714 13.099 17.7392C12.6705 17.307 12.4298 16.7208 12.4298 16.1095ZM7.86006 8.61924C7.8597 7.55129 8.12688 6.50057 8.6368 5.56463C9.14671 4.6287 9.88282 3.83791 10.7768 3.2657C11.6707 2.69349 12.6935 2.35841 13.7502 2.29158C14.8069 2.22475 15.8632 2.42833 16.821 2.88342L14.6818 11.5001C13.8633 11.5063 13.0614 11.7342 12.36 12.1599C11.6587 12.5856 11.0835 13.1935 10.6947 13.9201C9.82206 13.3444 9.10571 12.5581 8.6107 11.6324C8.11568 10.7067 7.85766 9.671 7.86006 8.61924ZM11.7158 25.8426C10.7991 26.3768 9.7634 26.6688 8.70491 26.6914C7.64642 26.7139 6.59945 26.4663 5.6612 25.9716C4.72295 25.4768 3.92385 24.7509 3.3381 23.8614C2.75235 22.9718 2.39894 21.9473 2.3107 20.8831L10.7804 18.443C11.1831 19.135 11.7579 19.7089 12.4479 20.108C13.1379 20.5072 13.9192 20.7178 14.7147 20.7189H14.8446C14.7871 21.7682 14.4709 22.7863 13.9245 23.681C13.3781 24.5758 12.6189 25.3187 11.7158 25.8426ZM26.8773 22.5296C26.415 23.3383 25.781 24.0339 25.0208 24.5663L18.6917 18.3883C19.0968 17.6708 19.3027 16.8564 19.2878 16.0309C19.273 15.2053 19.038 14.3991 18.6075 13.6968C19.8159 13.0815 21.1889 12.8762 22.5223 13.1116C23.8556 13.347 25.0779 14.0104 26.0073 15.003C26.9367 15.9957 27.5235 17.2645 27.6802 18.6207C27.837 19.9769 27.5553 21.3479 26.8773 22.5296Z" fill="black"/>
</svg>
