<svg width="28" height="28" viewBox="0 0 28 28" fill="none" xmlns="http://www.w3.org/2000/svg">
<path d="M21.2469 26.0638H8.96527C8.57653 26.0638 8.23639 25.8208 8.10276 25.4685C7.96913 25.1041 8.07846 24.7032 8.37002 24.4602C8.66157 24.2173 8.92883 23.9014 9.12319 23.5613C9.51193 22.9417 9.7063 22.2372 9.7063 21.5204C9.7063 19.3459 7.93269 17.5723 5.75819 17.5723C4.85923 17.5723 4.00887 17.876 3.29214 18.447C3.15849 18.5544 2.99705 18.6216 2.82665 18.6407C2.65626 18.6598 2.48395 18.63 2.32984 18.5549C2.17572 18.4797 2.04616 18.3623 1.95628 18.2163C1.8664 18.0702 1.81991 17.9017 1.82223 17.7302V12.4215C1.82223 9.39668 4.27613 6.94278 7.30099 6.94278H21.2469C24.2718 6.94278 26.7257 9.39668 26.7257 12.4215V14.1709C26.7257 14.6689 26.3127 15.082 25.8146 15.082H23.3607C22.9355 15.082 22.5468 15.2399 22.2674 15.5314L22.2552 15.5436C21.9151 15.8716 21.7572 16.3211 21.7936 16.7827C21.8665 17.5845 22.6318 18.2283 23.5065 18.2283H25.8146C26.3127 18.2283 26.7257 18.6413 26.7257 19.1394V20.585C26.7257 23.6099 24.2718 26.0638 21.2469 26.0638ZM10.8482 24.2416H21.2469C23.2635 24.2416 24.9035 22.6016 24.9035 20.585V20.0505H23.5065C21.6721 20.0505 20.1172 18.6899 19.9714 16.9406C19.8742 15.9445 20.2386 14.9605 20.9675 14.2437C21.5992 13.5999 22.4496 13.2476 23.3607 13.2476H24.9035V12.4094C24.9035 10.3928 23.2635 8.75284 21.2469 8.75284H7.30099C5.28442 8.75284 3.64443 10.3928 3.64443 12.4094V16.151C4.3209 15.8812 5.04207 15.7411 5.77034 15.738C8.95312 15.738 11.5407 18.3255 11.5407 21.5083C11.5407 22.468 11.2977 23.4155 10.8482 24.2416Z" fill="black"/>
<path d="M2.73331 14.4114C2.23524 14.4114 1.8222 13.9984 1.8222 13.5003V7.94863C1.8222 6.13858 2.96412 4.49859 4.6527 3.85475L14.2982 0.210338C15.2944 -0.166251 16.3998 -0.0326228 17.2624 0.574779C18.137 1.18218 18.6472 2.16617 18.6472 3.22305V7.8393C18.6472 8.33737 18.2342 8.7504 17.7361 8.7504C17.2381 8.7504 16.825 8.33737 16.825 7.8393V3.22305C16.825 2.76142 16.6064 2.33624 16.2176 2.06899C15.8289 1.80173 15.3673 1.74099 14.9299 1.91106L5.28439 5.55547C4.3004 5.93206 3.63226 6.89176 3.63226 7.94863V13.5003C3.64441 14.0105 3.23138 14.4114 2.73331 14.4114ZM23.5052 20.0481C21.6709 20.0481 20.1159 18.6875 19.9701 16.9382C19.873 15.9299 20.2374 14.9459 20.9663 14.2292C21.5858 13.5975 22.4362 13.2452 23.3473 13.2452H25.8741C27.0767 13.2816 28 14.2292 28 15.3954V17.8979C28 19.0641 27.0767 20.0116 25.9105 20.0481H23.5052ZM25.8498 15.0674H23.3595C22.9343 15.0674 22.5455 15.2253 22.2661 15.5169C21.9138 15.857 21.7438 16.3186 21.7924 16.7803C21.8652 17.582 22.6306 18.2259 23.5052 18.2259H25.8862C26.0442 18.2259 26.1899 18.0801 26.1899 17.8979V15.3954C26.1899 15.2132 26.0442 15.0795 25.8498 15.0674Z" fill="black"/>
<path d="M16.7035 13.9133H8.19992C7.70185 13.9133 7.28882 13.5003 7.28882 13.0022C7.28882 12.5042 7.70185 12.0911 8.19992 12.0911H16.7035C17.2016 12.0911 17.6146 12.5042 17.6146 13.0022C17.6146 13.5003 17.2016 13.9133 16.7035 13.9133ZM5.77032 27.2762C3.75374 27.2762 1.85865 26.2071 0.838214 24.47C0.291553 23.5953 0 22.5627 0 21.5059C0 19.7322 0.789622 18.0923 2.16235 16.9989C3.18278 16.185 4.47048 15.7355 5.77032 15.7355C8.9531 15.7355 11.5406 18.3231 11.5406 21.5059C11.5406 22.5627 11.2491 23.5953 10.7024 24.4821C10.4109 24.9923 10.01 25.454 9.54835 25.8427C8.54007 26.7659 7.19164 27.2762 5.77032 27.2762ZM5.77032 17.5577C4.87136 17.5577 4.021 17.8614 3.30426 18.4324C2.55684 19.0258 2.05181 19.8717 1.88404 20.8112C1.71628 21.7507 1.89732 22.7191 2.39316 23.5346C3.1099 24.7494 4.37329 25.454 5.77032 25.454C6.73001 25.454 7.65326 25.1017 8.35785 24.47C8.6737 24.2027 8.94095 23.8869 9.13532 23.5467C9.52406 22.9272 9.71843 22.2226 9.71843 21.5059C9.71843 19.3314 7.94481 17.5577 5.77032 17.5577Z" fill="black"/>
<path d="M5.07666 23.6208C4.84585 23.6208 4.61503 23.5358 4.43281 23.3536L3.23016 22.1509C3.06101 21.9793 2.96619 21.748 2.96619 21.5071C2.96619 21.2661 3.06101 21.0348 3.23016 20.8632C3.58245 20.5109 4.16556 20.5109 4.51785 20.8632L5.10096 21.4463L7.04464 19.6484C7.40908 19.3083 7.99219 19.3326 8.33233 19.697C8.67248 20.0614 8.64818 20.6445 8.28374 20.9847L5.69621 23.3779C5.51399 23.5358 5.29532 23.6208 5.07666 23.6208Z" fill="black"/>
</svg>
