<svg width="26" height="24" viewBox="0 0 26 24" fill="none" xmlns="http://www.w3.org/2000/svg">
<path d="M12.5842 24C11.6243 24 10.6644 23.6956 9.86834 23.0986L3.76941 18.5332C3.20791 18.1089 2.75202 17.5607 2.43728 16.9312C2.12254 16.3017 1.95748 15.6081 1.95496 14.9043V0.0140381H23.2134V14.9043C23.2134 16.3207 22.5344 17.6787 21.3989 18.5332L15.3 23.0986C14.504 23.6956 13.5441 24 12.5842 24ZM3.71088 1.75826V14.8926C3.71088 15.7589 4.13231 16.59 4.82297 17.1168L10.9219 21.6822C11.9052 22.4197 13.2748 22.4197 14.2582 21.6822L20.3571 17.1168C21.0477 16.59 21.4692 15.7589 21.4692 14.8926V1.75826H3.71088Z" fill="black"/>
<path d="M24.2903 1.75593H0.877964C0.39801 1.75593 0 1.35792 0 0.877964C0 0.39801 0.39801 0 0.877964 0H24.2903C24.7703 0 25.1683 0.39801 25.1683 0.877964C25.1683 1.35792 24.7703 1.75593 24.2903 1.75593ZM17.2666 8.19433H7.90167C7.42172 8.19433 7.02371 7.79632 7.02371 7.31636C7.02371 6.83641 7.42172 6.4384 7.90167 6.4384H17.2666C17.7466 6.4384 18.1446 6.83641 18.1446 7.31636C18.1446 7.79632 17.7466 8.19433 17.2666 8.19433ZM17.2666 14.0474H7.90167C7.42172 14.0474 7.02371 13.6494 7.02371 13.1695C7.02371 12.6895 7.42172 12.2915 7.90167 12.2915H17.2666C17.7466 12.2915 18.1446 12.6895 18.1446 13.1695C18.1446 13.6494 17.7466 14.0474 17.2666 14.0474Z" fill="black"/>
</svg>
