<svg width="22" height="24" viewBox="0 0 22 24" fill="none" xmlns="http://www.w3.org/2000/svg">
<path d="M13.1163 24H8.65116C2.58977 24 0 21.4102 0 15.3488V8.65116C0 2.58977 2.58977 0 8.65116 0H13.1163C19.1777 0 21.7674 2.58977 21.7674 8.65116V15.3488C21.7674 21.4102 19.1777 24 13.1163 24ZM8.65116 1.67442C3.50512 1.67442 1.67442 3.50512 1.67442 8.65116V15.3488C1.67442 20.4949 3.50512 22.3256 8.65116 22.3256H13.1163C18.2623 22.3256 20.093 20.4949 20.093 15.3488V8.65116C20.093 3.50512 18.2623 1.67442 13.1163 1.67442H8.65116Z" fill="black"/>
<path d="M14.2326 10.6917H7.53488C6.1507 10.6917 5.02325 9.56428 5.02325 8.18009V7.06381C5.02325 5.67963 6.1507 4.55219 7.53488 4.55219H14.2326C15.6167 4.55219 16.7442 5.67963 16.7442 7.06381V8.18009C16.7442 9.56428 15.6167 10.6917 14.2326 10.6917ZM7.53488 6.2266C7.07721 6.2266 6.69767 6.60614 6.69767 7.06381V8.18009C6.69767 8.63777 7.07721 9.0173 7.53488 9.0173H14.2326C14.6902 9.0173 15.0698 8.63777 15.0698 8.18009V7.06381C15.0698 6.60614 14.6902 6.2266 14.2326 6.2266H7.53488ZM6.58604 15.2584C6.44093 15.2584 6.29581 15.2249 6.16186 15.1691C6.02865 15.115 5.9073 15.0354 5.80465 14.9347C5.70069 14.8308 5.61851 14.7071 5.56292 14.571C5.50734 14.4349 5.47946 14.2891 5.48093 14.1421C5.47921 13.9951 5.50697 13.8492 5.56257 13.7131C5.61817 13.577 5.70049 13.4534 5.80465 13.3496C5.8493 13.3049 5.90511 13.2491 5.97209 13.2156C6.02791 13.171 6.09488 13.1375 6.16186 13.1152C6.29738 13.0581 6.44286 13.0285 6.58989 13.0279C6.73693 13.0274 6.88262 13.056 7.01856 13.112C7.1545 13.168 7.278 13.2504 7.38195 13.3544C7.48589 13.4584 7.56822 13.582 7.62418 13.718C7.68 13.8519 7.71349 13.997 7.71349 14.1421C7.71287 14.2898 7.68296 14.4359 7.62547 14.572C7.56799 14.708 7.48408 14.8313 7.3786 14.9347C7.27467 15.0387 7.15104 15.1208 7.01495 15.1764C6.87886 15.232 6.73304 15.2599 6.58604 15.2584ZM11.0623 15.2618C10.9153 15.2633 10.7695 15.2354 10.6334 15.1798C10.4973 15.1243 10.3736 15.0421 10.2697 14.9381C10.1657 14.8342 10.0835 14.7105 10.028 14.5744C9.97241 14.4383 9.94455 14.2925 9.94604 14.1455C9.94433 13.9985 9.97209 13.8526 10.0277 13.7164C10.0833 13.5803 10.1656 13.4567 10.2698 13.3529C10.3144 13.3083 10.3702 13.2525 10.4372 13.219C10.493 13.1743 10.56 13.1408 10.627 13.1185C10.7627 13.06 10.9089 13.0298 11.0567 13.0298C11.2045 13.0298 11.3508 13.06 11.4865 13.1185C11.6205 13.1743 11.7433 13.2525 11.8437 13.3529C11.9442 13.4646 12.0335 13.5762 12.0893 13.7213C12.1451 13.8553 12.1786 14.0004 12.1786 14.1455C12.178 14.2932 12.1481 14.4393 12.0906 14.5753C12.0331 14.7114 11.9492 14.8347 11.8437 14.938C11.6316 15.1501 11.3526 15.2618 11.0623 15.2618ZM15.5163 15.2606C15.3712 15.2606 15.226 15.2272 15.0921 15.1713C14.9566 15.1159 14.8336 15.034 14.7301 14.9305C14.6266 14.8271 14.5448 14.704 14.4893 14.5686C14.4355 14.4337 14.409 14.2895 14.4112 14.1444C14.4094 13.9973 14.4372 13.8515 14.4928 13.7153C14.5484 13.5792 14.6307 13.4556 14.7349 13.3518C15.1479 12.9388 15.8958 12.9388 16.3088 13.3518C16.5209 13.5639 16.6437 13.8541 16.6437 14.1444C16.6431 14.2921 16.6132 14.4382 16.5557 14.5742C16.4982 14.7103 16.4143 14.8335 16.3088 14.9369C16.1079 15.1379 15.8288 15.2606 15.5163 15.2606ZM6.59498 19.7235C6.44798 19.725 6.30217 19.6971 6.16608 19.6415C6.02998 19.586 5.90635 19.5038 5.80242 19.3998C5.69694 19.2964 5.61303 19.1731 5.55555 19.0371C5.49806 18.901 5.46815 18.7549 5.46753 18.6073C5.47012 18.4237 5.51718 18.2435 5.60466 18.0822C5.69215 17.9208 5.81746 17.7831 5.96986 17.6807C6.02567 17.6361 6.09265 17.6026 6.15963 17.5803C6.2266 17.5468 6.30474 17.5245 6.37172 17.5133C6.74009 17.4463 7.11963 17.558 7.37637 17.8147C7.43218 17.8705 7.47684 17.9263 7.52149 17.9821L7.62195 18.1831L7.68893 18.384C7.70009 18.4621 7.71125 18.5291 7.71125 18.6073C7.71064 18.7549 7.68073 18.901 7.62324 19.0371C7.56576 19.1731 7.48185 19.2964 7.37637 19.3998C7.16428 19.6119 6.88521 19.7235 6.59498 19.7235ZM11.0601 19.7235C10.9131 19.725 10.7673 19.6971 10.6312 19.6415C10.4951 19.586 10.3715 19.5038 10.2675 19.3998C10.1621 19.2964 10.0781 19.1731 10.0207 19.0371C9.96318 18.901 9.93326 18.7549 9.93265 18.6073C9.93265 18.317 10.0554 18.0268 10.2675 17.8147C10.5243 17.558 10.915 17.4463 11.2722 17.5133C11.3392 17.5245 11.4173 17.5468 11.4843 17.5803C11.5513 17.6026 11.6182 17.6361 11.674 17.6807C11.7299 17.7142 11.7857 17.77 11.8415 17.8147C12.0536 18.0268 12.1652 18.317 12.1652 18.6073C12.1667 18.7533 12.1392 18.8982 12.0843 19.0336C12.0294 19.169 11.9483 19.2921 11.8455 19.3959C11.7427 19.4997 11.6204 19.5821 11.4856 19.6384C11.3508 19.6946 11.2062 19.7235 11.0601 19.7235ZM15.5163 19.7247C15.3702 19.7247 15.2256 19.6957 15.0908 19.6395C14.956 19.5832 14.8336 19.5008 14.7309 19.397C14.6281 19.2932 14.5469 19.1701 14.4921 19.0347C14.4372 18.8993 14.4097 18.7544 14.4112 18.6084C14.4112 18.3181 14.5228 18.0279 14.7349 17.8158C14.8353 17.7153 14.9581 17.6372 15.0921 17.5814C15.5051 17.414 16.0074 17.5033 16.3088 17.8158C16.5209 18.0279 16.6326 18.3181 16.6326 18.6084C16.6326 18.9098 16.5209 19.1888 16.3088 19.4009C16.2084 19.5014 16.0856 19.5795 15.9516 19.6353C15.8177 19.6912 15.6726 19.7247 15.5163 19.7247Z" fill="black"/>
</svg>
