<svg width="23" height="24" viewBox="0 0 23 24" fill="none" xmlns="http://www.w3.org/2000/svg">
<path d="M7.46945 24C7.22296 24 6.97648 23.9092 6.78188 23.7146L0.282424 17.2152C0.101476 17.0321 0 16.785 0 16.5276C0 16.2702 0.101476 16.0231 0.282424 15.84C0.65864 15.4638 1.28134 15.4638 1.65756 15.84L8.15702 22.3395C8.53323 22.7157 8.53323 23.3384 8.15702 23.7146C7.96242 23.8962 7.71594 24 7.46945 24Z" fill="black"/>
<path d="M7.46943 24C6.93754 24 6.49646 23.5589 6.49646 23.027V0.972973C6.49646 0.441081 6.93754 0 7.46943 0C8.00132 0 8.44241 0.441081 8.44241 0.972973V23.027C8.44241 23.5589 8.00132 24 7.46943 24ZM21.7397 8.44541C21.4932 8.44541 21.2467 8.35459 21.0521 8.16L14.5527 1.66054C14.3717 1.47744 14.2703 1.2304 14.2703 0.972973C14.2703 0.71555 14.3717 0.468503 14.5527 0.285405C14.9289 -0.0908108 15.5516 -0.0908108 15.9278 0.285405L22.4273 6.78486C22.8035 7.16108 22.8035 7.78378 22.4273 8.16C22.2327 8.35459 21.9862 8.44541 21.7397 8.44541Z" fill="black"/>
<path d="M15.2273 24C14.6954 24 14.2543 23.5589 14.2543 23.027V0.972973C14.2543 0.441081 14.6954 0 15.2273 0C15.7592 0 16.2003 0.441081 16.2003 0.972973V23.027C16.2003 23.5589 15.7722 24 15.2273 24Z" fill="black"/>
</svg>
