<svg width="20" height="30" viewBox="0 0 20 30" fill="none" xmlns="http://www.w3.org/2000/svg">
<path d="M18.3108 5.51216C16.1516 2.00498 12.8162 0.65411 8.80475 1.07406C4.486 1.52577 1.21908 5.00815 1.00926 9.78094C0.902988 12.1927 1.71783 14.33 3.13225 16.255C3.70829 17.039 4.38244 17.7419 4.99893 18.4924C5.77332 19.4354 6.34271 20.4791 6.59903 21.6827C6.63798 21.8641 6.66967 22.0005 6.44083 22.1029C6.21199 22.2054 6.13711 22.4401 6.16368 22.6925C6.18904 22.9344 6.32007 23.1333 6.54529 23.1844C6.79738 23.2413 6.81519 23.3867 6.80825 23.5838C6.80312 23.7271 6.80372 23.871 6.80825 24.0147C6.81097 24.1356 6.78651 24.1997 6.63948 24.2372C6.27146 24.3303 6.0867 24.5828 6.10904 24.8924C6.13077 25.1947 6.32973 25.4063 6.68537 25.4753C6.78168 25.4934 6.85565 25.497 6.86259 25.6141C6.88403 25.9878 7.0854 26.3279 7.06215 26.7122C7.0543 26.844 7.08812 26.9918 7.19167 27.0777C7.43531 27.2794 7.56875 27.563 7.76529 27.7994C8.20607 28.3339 8.75071 28.7064 9.42244 28.8899C9.50849 28.9135 9.62865 28.8863 9.68057 29H10.74C10.7611 28.9791 10.7798 28.9438 10.8037 28.9395C12.0276 28.7403 12.8965 28.0488 13.4474 26.9631C13.5921 26.6777 13.7548 26.561 14.0582 26.5398C14.2147 26.5328 14.3626 26.4658 14.4711 26.3526C14.5797 26.2394 14.6406 26.0887 14.6412 25.9318C14.6472 25.6277 14.444 25.3483 14.1153 25.3066C13.9039 25.2797 13.8964 25.1899 13.9091 25.0327C13.9193 24.9335 13.9172 24.8335 13.9027 24.7348C13.8707 24.5498 13.9145 24.4603 14.1222 24.4225C14.4573 24.3621 14.6536 24.096 14.64 23.7943C14.6258 23.4774 14.4039 23.2328 14.0437 23.1986C13.8764 23.1829 13.836 23.1357 13.8583 22.9852C13.8787 22.8653 13.8888 22.7439 13.8885 22.6224C13.8816 22.3645 13.9444 22.2012 14.2487 22.1637C14.4824 22.1335 14.6194 21.9403 14.6638 21.702C14.7103 21.452 14.6472 21.2225 14.4304 21.0931C14.2411 20.9803 14.1931 20.8733 14.2982 20.6822C14.3507 20.5867 14.3779 20.4775 14.419 20.3757C14.8667 19.283 15.6308 18.4104 16.3886 17.5336C17.2128 16.5791 17.9772 15.5835 18.5255 14.4385C19.9662 11.4263 20.077 8.37958 18.3108 5.51216ZM7.96636 23.7888C7.97813 23.7135 7.96817 23.6349 7.96787 23.5575C7.96304 23.0847 7.96334 23.0883 8.43854 23.02C9.75545 22.8307 11.0727 22.645 12.3875 22.4422C12.6685 22.3989 12.744 22.4567 12.7102 22.7494C12.6404 23.3565 12.6583 23.3692 12.0487 23.4605C10.7765 23.6509 9.50185 23.8257 8.22932 24.0147C8.03217 24.0437 7.93194 24.0125 7.96636 23.7888ZM8.81924 27.1953L12.1511 26.7841C11.4965 27.9506 9.75273 28.1679 8.81924 27.1953ZM12.3114 25.5022C11.0077 25.6395 9.70563 25.7967 8.40895 25.9859C7.9896 26.0464 8.10704 25.7441 8.0367 25.5687C7.94009 25.3247 8.09497 25.293 8.29875 25.2664C9.65189 25.0816 11.0044 24.893 12.3536 24.6831C12.6731 24.6333 12.8041 24.6925 12.7159 25.029C12.8095 25.3797 12.6477 25.465 12.3114 25.5007V25.5022ZM17.4721 13.9282C16.9797 14.9637 16.2844 15.8617 15.5399 16.7252C15.0871 17.2525 14.63 17.7776 14.2206 18.3415C13.6588 19.1164 13.2274 19.9551 12.9928 20.886C12.9502 21.0556 12.8738 21.1164 12.7102 21.1394C11.1385 21.3589 9.56746 21.5842 7.99715 21.8154C7.73721 21.8541 7.79729 21.6522 7.77706 21.5463C7.5452 20.3433 7.04434 19.2648 6.31735 18.2847C5.72441 17.485 5.03788 16.7642 4.40841 15.9962C3.24366 14.5752 2.45901 12.9758 2.23228 11.1412C1.75466 7.27059 4.00778 3.02569 8.65621 2.25744C9.11493 2.18305 9.57827 2.14072 10.0429 2.13075C12.8017 2.2396 15.2085 3.17323 16.8744 5.44837C18.8229 8.10929 18.8697 10.99 17.4721 13.9282Z" fill="black" stroke="black" stroke-width="0.5"/>
</svg>
