<svg width="53" height="70" viewBox="0 0 53 70" fill="none" xmlns="http://www.w3.org/2000/svg">
<path d="M26.2748 0.404236C40.5641 0.404236 52.1456 11.502 52.1456 25.1895C52.1456 32.3558 48.9333 38.9324 42.6424 44.8211C42.3698 45.0759 42.1565 45.3865 42.0172 45.7313L41.9051 46.0774L37.8692 62.816C37.0759 66.1107 34.1395 68.4995 30.6685 68.7559L30.0476 68.7773H22.5019C18.9749 68.7773 15.8833 66.5722 14.8441 63.3843L14.6803 62.816L10.6488 46.0817C10.5335 45.5997 10.2788 45.1615 9.91575 44.8211C3.92233 39.2145 0.718655 32.984 0.429764 26.2108L0.403893 25.1895L0.416827 24.3733C0.869567 11.0619 12.2743 0.404236 26.2748 0.404236ZM17.4571 55.9573L18.8326 61.6579L18.9447 62.0682C19.3629 63.3501 20.5659 64.2988 22.0147 64.474L22.5019 64.5039H29.8881L30.3451 64.4911C31.0364 64.4518 31.7026 64.2206 32.2676 63.8239C32.8326 63.4272 33.2736 62.881 33.5402 62.2476L33.6738 61.8203L35.0924 55.9573H17.4571ZM26.2748 4.67755C14.9261 4.67755 5.62981 13.0233 4.78038 23.54L4.72864 24.4459L4.7157 25.0997L4.73295 26.027C4.97441 31.5994 7.63911 36.8171 12.8737 41.7144C13.6843 42.475 14.2966 43.4151 14.6587 44.4493L14.8441 45.0903L16.4266 51.684H24.1189V32.4413C24.1189 31.8746 24.346 31.3311 24.7503 30.9304C25.1546 30.5297 25.703 30.3046 26.2748 30.3046C26.8465 30.3046 27.3949 30.5297 27.7992 30.9304C28.2035 31.3311 28.4307 31.8746 28.4307 32.4413V51.684H36.1273L37.7959 44.7826L38.0158 44.1416C38.3866 43.2228 38.9558 42.3938 39.6802 41.7144C45.1734 36.5778 47.8338 31.0909 47.8338 25.1895C47.8338 13.8951 38.2142 4.67755 26.2748 4.67755Z" fill="#6DC2FF"/>
<path d="M23.9911 15.9077L25.2136 13.3373C26.0037 11.6758 26.399 10.8451 26.7322 11.0359C27.0655 11.2266 27.0277 12.2617 26.9521 14.3324L26.945 14.5278C26.9177 15.2748 26.9041 15.648 27.0351 15.8869L27.042 15.8998C27.1761 16.1338 27.4028 16.1421 27.8567 16.1587C28.6739 16.1885 29.0822 16.2034 29.2047 16.6327L29.2106 16.6544C29.3252 17.0897 29.0684 17.6294 28.5554 18.7071L27.3329 21.2782C26.5424 22.9397 26.1476 23.7704 25.8143 23.5796C25.481 23.3888 25.5188 22.3538 25.5944 20.283L25.6015 20.0876C25.6288 19.3407 25.6424 18.9675 25.5115 18.7285L25.5046 18.7157C25.3704 18.4816 25.1437 18.4734 24.6898 18.4568C23.8726 18.427 23.4643 18.4121 23.3418 17.9828C23.3398 17.9756 23.3378 17.9684 23.3359 17.9611C23.2214 17.5258 23.478 16.9867 23.9911 15.9084L23.9911 15.9077Z" fill="#6DC2FF"/>
<path d="M36.0274 20.0766L38.6729 19.0263C40.3828 18.3473 41.2379 18.0079 41.3521 18.3745C41.4663 18.7412 40.7339 19.4736 39.2687 20.9388L39.1305 21.077C38.6019 21.6056 38.3379 21.8696 38.2711 22.1338L38.2674 22.1479C38.2063 22.4107 38.3667 22.5711 38.6879 22.8923C39.2661 23.4705 39.555 23.7594 39.3525 24.1572L39.342 24.1771C39.1296 24.5739 38.5741 24.7945 37.4646 25.2345L34.8187 26.2853C33.1085 26.964 32.2537 27.3037 32.1395 26.937C32.0253 26.5704 32.7577 25.838 34.2229 24.3728L34.3612 24.2345C34.8897 23.706 35.1538 23.4419 35.2205 23.1778L35.2242 23.1636C35.2853 22.9009 35.1249 22.7405 34.8037 22.4193C34.2255 21.8411 33.9366 21.5522 34.1391 21.1543C34.1425 21.1477 34.146 21.1411 34.1496 21.1345C34.362 20.7376 34.9171 20.5175 36.027 20.077L36.0274 20.0766Z" fill="#6DC2FF"/>
<path d="M13.1466 23.3741L12.0962 20.7287C11.4172 19.0188 11.0779 18.1637 11.4445 18.0495C11.8111 17.9353 12.5435 18.6677 14.0087 20.1329L14.147 20.2711C14.6755 20.7997 14.9396 21.0637 15.2038 21.1305L15.2179 21.1342C15.4806 21.1953 15.6411 21.0349 15.9622 20.7137C16.5405 20.1354 16.8293 19.8466 17.2272 20.0491L17.247 20.0596C17.6439 20.272 17.8644 20.8275 18.3045 21.937L19.3553 24.5829C20.034 26.2931 20.3736 27.1479 20.007 27.2621C19.6403 27.3763 18.908 26.6439 17.4428 25.1787L17.3045 25.0404C16.776 24.5119 16.5119 24.2478 16.2477 24.1811L16.2336 24.1774C15.9709 24.1163 15.8104 24.2767 15.4893 24.5979C14.911 25.1761 14.6222 25.465 14.2243 25.2625C14.2177 25.2591 14.2111 25.2556 14.2045 25.252C13.8076 25.0396 13.5875 24.4845 13.147 23.3746L13.1466 23.3741Z" fill="#6DC2FF"/>
<path fill-rule="evenodd" clip-rule="evenodd" d="M0.821371 24.3833L0.808627 25.1875L0.834198 26.197C1.11854 32.8401 4.25869 38.9752 10.1923 44.5259L10.1927 44.5262C10.613 44.9204 10.9084 45.428 11.0422 45.987M11.0423 45.9877L15.0716 62.7126L15.231 63.2656C16.2155 66.2757 19.1443 68.373 22.5024 68.373H30.0411L30.647 68.3522C33.9503 68.1049 36.7275 65.8323 37.4767 62.7213L41.5162 45.9676L41.6375 45.5931L41.6428 45.5798C41.8042 45.1804 42.0513 44.8208 42.3666 44.5259C48.595 38.6958 51.7418 32.2202 51.7418 25.1895C51.7418 11.7414 40.3578 0.808465 26.2752 0.808465C12.479 0.808465 1.26817 11.306 0.821371 24.3833M0.0132492 24.3595C0.473892 10.8158 12.0717 0 26.2752 0C40.7713 0 52.5503 11.2626 52.5503 25.1895C52.5503 32.4914 49.2725 39.169 42.9191 45.1162C42.6927 45.3279 42.5148 45.5851 42.3976 45.87L42.2948 46.1872L38.2626 62.9106C37.4256 66.3867 34.334 68.8905 30.6987 69.159L30.6908 69.1596L30.055 69.1815H22.5024C18.8087 69.1815 15.5562 66.8717 14.4602 63.5096L14.4581 63.503L14.2898 62.9194L10.2562 46.1764L10.256 46.1757C10.1593 45.7709 9.94523 45.4025 9.63964 45.1159C3.58771 39.4544 0.320697 33.1298 0.0263194 26.228L0.0261704 26.2245L0 25.1914L0.0131245 24.3632L0.0132492 24.3595ZM4.37788 23.5074C5.24551 12.7654 14.7317 4.27331 26.2752 4.27331C38.4195 4.27331 48.2385 13.6539 48.2385 25.1895C48.2385 31.229 45.5104 36.8166 39.9567 42.0096C39.2776 42.6467 38.7438 43.4232 38.3951 44.283L38.1848 44.8959L36.4458 52.0882H28.0269V32.4413C28.0269 31.983 27.8432 31.5427 27.5151 31.2175C27.1869 30.8922 26.7409 30.7088 26.2752 30.7088C25.8095 30.7088 25.3635 30.8922 25.0353 31.2175C24.7072 31.5427 24.5235 31.983 24.5235 32.4413V52.0882H16.1083L14.4537 45.1936L14.274 44.5725C13.9331 43.6044 13.3585 42.7233 12.5977 42.0093C7.30671 37.0592 4.57665 31.7478 4.32952 26.0445L4.3293 26.0395L4.31182 25.0995L4.32506 24.4304L4.3775 23.5122L4.37788 23.5074ZM5.1841 23.5678L5.13306 24.4614L5.12043 25.1L5.13744 26.0145C5.37459 31.454 7.97385 36.5764 13.1502 41.4192L13.1507 41.4196C14.0083 42.2243 14.6568 43.2196 15.0407 44.3157L15.0444 44.3262L15.2355 44.9869L16.7457 51.2798H23.715V32.4413C23.715 31.7662 23.9857 31.1195 24.4662 30.6433C24.9466 30.1672 25.5974 29.9004 26.2752 29.9004C26.953 29.9004 27.6038 30.1672 28.0842 30.6433C28.5647 31.1195 28.8353 31.7662 28.8353 32.4413V51.2798H35.8095L37.4079 44.6693L37.6374 44.0003L37.6414 43.9903C38.0343 43.0168 38.6372 42.1389 39.4041 41.4195L39.4045 41.4191C44.8374 36.3391 47.43 30.9528 47.43 25.1895C47.43 14.1363 38.0097 5.08178 26.2752 5.08178C15.123 5.08178 6.01772 13.2788 5.1841 23.5678ZM26.4896 11.7027C26.2642 12.0715 25.9789 12.6702 25.5791 13.5109L24.3925 16.0059L24.3924 16.0066L24.3565 16.082C24.096 16.6295 23.9151 17.0111 23.8099 17.31C23.7051 17.6078 23.7009 17.7579 23.7273 17.8582L23.7279 17.8606C23.7289 17.8645 23.73 17.8684 23.731 17.8722C23.7445 17.9191 23.7578 17.9312 23.7618 17.9349C23.7691 17.9416 23.7937 17.9605 23.8641 17.9801C24.0264 18.0253 24.2746 18.0371 24.705 18.0528L24.7358 18.0539C24.9355 18.0611 25.1446 18.0686 25.318 18.1131C25.5379 18.1695 25.7267 18.2895 25.8557 18.5147L25.8586 18.5196L25.8613 18.5247L25.8664 18.5342C25.8667 18.5348 25.867 18.5354 25.8673 18.536C25.9771 18.7373 26.0097 18.9647 26.0201 19.1997C26.0304 19.4327 26.0197 19.7263 26.0066 20.085L25.9988 20.2978C25.9607 21.3409 25.9334 22.0978 25.9553 22.6193C25.9623 22.7854 25.974 22.9171 25.9894 23.0199C26.0103 22.9885 26.0331 22.953 26.0576 22.9128C26.2829 22.5439 26.5683 21.9452 26.9683 21.1045L28.1908 18.5335C28.4513 17.9864 28.6323 17.6047 28.7374 17.3057C28.8419 17.0087 28.8465 16.8585 28.8203 16.7582C28.8202 16.7579 28.8202 16.7576 28.8201 16.7573L28.8158 16.7414C28.8025 16.6961 28.7895 16.6842 28.7855 16.6806C28.7782 16.6739 28.7537 16.6549 28.6832 16.6353C28.5209 16.5901 28.2727 16.5784 27.8424 16.5626L27.8115 16.5615C27.6118 16.5543 27.4028 16.5468 27.2294 16.5023C27.0095 16.4459 26.8207 16.326 26.6917 16.1008L26.6888 16.0958L26.6861 16.0908L26.681 16.0812C26.6807 16.0806 26.6803 16.08 26.68 16.0794C26.5702 15.8781 26.5376 15.6507 26.5273 15.4157C26.517 15.1828 26.5277 14.8891 26.5408 14.5305L26.5486 14.3177C26.5866 13.2745 26.614 12.5177 26.592 11.9961C26.585 11.83 26.5733 11.6983 26.558 11.5955C26.537 11.6268 26.5142 11.6625 26.4896 11.7027ZM26.5348 10.6136C26.6778 10.5887 26.8154 10.6174 26.9335 10.685C27.1589 10.8141 27.2576 11.0462 27.3085 11.235C27.3625 11.435 27.388 11.6826 27.3998 11.9622C27.4232 12.5195 27.3944 13.3083 27.3573 14.3254L27.3494 14.5426C27.3355 14.923 27.3263 15.1837 27.3349 15.3801C27.3436 15.5774 27.3695 15.6554 27.39 15.6926L27.3909 15.6943L27.3951 15.7022C27.3971 15.7055 27.3986 15.7076 27.3996 15.709C27.4034 15.7108 27.4126 15.7147 27.4303 15.7192C27.5083 15.7393 27.6269 15.7458 27.8719 15.7547L27.9156 15.7563C28.2861 15.7697 28.6337 15.7823 28.9 15.8565C29.0491 15.898 29.2008 15.9652 29.33 16.083C29.4627 16.2039 29.5462 16.3547 29.5938 16.5217L29.5947 16.5246L29.6019 16.5514C29.6901 16.8864 29.6233 17.2237 29.5001 17.574C29.3788 17.9188 29.1784 18.3398 28.9302 18.8612L28.9209 18.8807L27.6984 21.4517L27.6836 21.4829C27.3001 22.2889 26.9974 22.9253 26.7475 23.3342C26.624 23.5364 26.4885 23.7261 26.334 23.8498C26.2531 23.9145 26.1456 23.9787 26.0126 24.0019C25.8696 24.0268 25.732 23.998 25.6139 23.9304C25.3884 23.8014 25.2898 23.5693 25.2389 23.3805C25.1849 23.1805 25.1593 22.9329 25.1476 22.6533C25.1242 22.0959 25.153 21.3071 25.1901 20.2901L25.198 20.0729C25.2119 19.6925 25.2211 19.4318 25.2124 19.2354C25.2037 19.038 25.1778 18.9601 25.1574 18.9228L25.1565 18.9212L25.1522 18.9132C25.1503 18.91 25.1488 18.9078 25.1477 18.9065C25.144 18.9046 25.1348 18.9008 25.1171 18.8962C25.039 18.8762 24.9205 18.8697 24.6755 18.8607L24.6318 18.8592C24.2612 18.8457 23.9136 18.8331 23.6473 18.759C23.4982 18.7175 23.3466 18.6503 23.2173 18.5325C23.0847 18.4116 23.0012 18.2608 22.9535 18.0938L22.9532 18.0928C22.9504 18.0828 22.9477 18.0727 22.9451 18.0627C22.8575 17.7281 22.9242 17.3914 23.0473 17.0417C23.1642 16.7094 23.3546 16.3062 23.5906 15.8102L23.5906 15.8096L24.849 13.1637L24.861 13.1385C25.2456 12.3296 25.5492 11.6912 25.7997 11.2812C25.9233 11.079 26.0588 10.8893 26.2133 10.7657C26.2942 10.701 26.4018 10.6367 26.5348 10.6136ZM11.7359 18.5584C11.7446 18.5952 11.7551 18.6361 11.7679 18.6815C11.8846 19.0977 12.1288 19.7143 12.4723 20.5795L13.4919 23.1474L13.4923 23.1478L13.5231 23.2255C13.7468 23.789 13.903 24.1813 14.0504 24.4619C14.1972 24.7414 14.3042 24.8467 14.3956 24.8956L14.3978 24.8968C14.4008 24.8984 14.4038 24.9 14.4067 24.9015C14.4075 24.9019 14.4082 24.9023 14.409 24.9027L14.2247 25.2625L14.4081 24.9022C14.4519 24.9245 14.4699 24.923 14.4753 24.9225C14.4852 24.9217 14.5158 24.9167 14.5781 24.8784C14.7217 24.7903 14.8993 24.6166 15.2039 24.312C15.2111 24.3048 15.2184 24.2975 15.2256 24.2902C15.3669 24.1488 15.5147 24.0008 15.6654 23.9041C15.8564 23.7815 16.0728 23.7249 16.3256 23.7836L16.3312 23.7849L16.3367 23.7864L16.3472 23.7892C16.3479 23.7893 16.3486 23.7895 16.3493 23.7897C16.5714 23.8463 16.7601 23.9773 16.9393 24.1297C17.1169 24.2807 17.3247 24.4885 17.5784 24.7423L17.729 24.8929C18.4671 25.631 19.0029 26.1662 19.3998 26.5053C19.5262 26.6132 19.6306 26.6943 19.7163 26.7531C19.7076 26.7164 19.6971 26.6755 19.6844 26.6302C19.5676 26.214 19.3234 25.5974 18.98 24.7321C18.98 24.732 18.98 24.7321 18.98 24.7321L17.9292 22.0862C17.7058 21.5229 17.5495 21.1304 17.4021 20.8499C17.2558 20.5712 17.1489 20.4656 17.0576 20.4164C17.0573 20.4163 17.057 20.4161 17.0567 20.4159L17.042 20.4082C16.9999 20.3871 16.9823 20.3886 16.977 20.389C16.9671 20.3898 16.9365 20.3949 16.8742 20.4331C16.7306 20.5213 16.553 20.695 16.2485 20.9995C16.2412 21.0068 16.234 21.014 16.2267 21.0213C16.0854 21.1627 15.9376 21.3107 15.787 21.4074C15.5959 21.5301 15.3795 21.5867 15.1267 21.5279L15.1212 21.5266L15.1156 21.5252L15.1052 21.5224C15.1045 21.5222 15.1038 21.522 15.1031 21.5219C14.881 21.4652 14.6922 21.3343 14.513 21.1819C14.3354 21.0308 14.1277 20.8231 13.8739 20.5693L13.7233 20.4187C12.9852 19.6806 12.4495 19.1453 12.0525 18.8063C11.9261 18.6983 11.8216 18.6172 11.7359 18.5584ZM14.2796 19.8316L14.4332 19.9853C14.7024 20.2545 14.8871 20.4387 15.0368 20.5661C15.1873 20.694 15.262 20.7282 15.3032 20.7386L15.3051 20.739L15.3138 20.7413C15.3175 20.7421 15.3201 20.7425 15.3218 20.7426C15.3257 20.7411 15.3348 20.737 15.3502 20.7271C15.418 20.6836 15.5034 20.6012 15.6768 20.4279C15.6871 20.4175 15.6974 20.4072 15.7077 20.3969C15.9698 20.1347 16.2157 19.8887 16.4514 19.7441C16.5832 19.6631 16.7357 19.5978 16.91 19.5833C17.0889 19.5685 17.2562 19.61 17.411 19.6888L17.4136 19.6902L17.4382 19.7032C17.7436 19.8666 17.9452 20.1452 18.1178 20.4739C18.2878 20.7975 18.4597 21.2309 18.6727 21.7678L18.6806 21.7878L19.7314 24.4337L19.7442 24.4659C20.0734 25.2955 20.3333 25.9504 20.4628 26.4118C20.5268 26.6399 20.5735 26.8683 20.5588 27.0657C20.5512 27.169 20.525 27.2915 20.4514 27.4047C20.3723 27.5264 20.2575 27.6076 20.1276 27.648C19.8796 27.7253 19.6424 27.6395 19.4695 27.5483C19.2863 27.4517 19.0875 27.3018 18.8747 27.12C18.4505 26.7577 17.8924 26.1996 17.1727 25.4799L17.0191 25.3263C16.7499 25.0571 16.5652 24.8729 16.4155 24.7455C16.265 24.6175 16.1903 24.5834 16.1491 24.573L16.1473 24.5725L16.1385 24.5702C16.1348 24.5695 16.1322 24.5691 16.1305 24.5689C16.1266 24.5704 16.1176 24.5745 16.1022 24.5844C16.0344 24.628 15.9489 24.7103 15.7755 24.8837L15.7446 24.9146C15.4825 25.1769 15.2366 25.4229 15.001 25.5675C14.8691 25.6484 14.7166 25.7138 14.5423 25.7282C14.3635 25.7431 14.1962 25.7015 14.0414 25.6227L14.0404 25.6223C14.0312 25.6175 14.022 25.6127 14.0129 25.6078C13.7082 25.4442 13.507 25.166 13.3346 24.8378C13.1708 24.5259 13.0052 24.1119 12.8025 23.6014L12.8021 23.6009L11.7209 20.8779L11.7106 20.8519C11.3801 20.0195 11.1192 19.3625 10.9894 18.8998C10.9255 18.6716 10.8788 18.4432 10.8935 18.2459C10.9011 18.1426 10.9273 18.0201 11.0009 17.9069C11.08 17.7852 11.1948 17.704 11.3247 17.6635C11.5727 17.5863 11.8099 17.672 11.9828 17.7632C12.166 17.8599 12.3648 18.0098 12.5776 18.1915C13.0018 18.5538 13.5599 19.112 14.2796 19.8316ZM16.129 24.5688C16.1285 24.5688 16.1282 24.5688 16.1281 24.5688C16.128 24.5688 16.1282 24.5688 16.129 24.5688ZM40.7205 18.6975C40.3044 18.8142 39.6877 19.0584 38.8225 19.402L36.255 20.4213L36.2546 20.4218L36.1765 20.4528C35.613 20.6764 35.2207 20.8327 34.9401 20.98C34.6606 21.1268 34.5554 21.2338 34.5064 21.3253L34.5052 21.3274C34.5033 21.331 34.5014 21.3345 34.4996 21.338C34.4775 21.3816 34.479 21.3995 34.4795 21.405C34.4803 21.4148 34.4853 21.4454 34.5236 21.5078C34.6117 21.6513 34.7855 21.829 35.09 22.1335L35.1118 22.1553C35.2532 22.2965 35.4012 22.4444 35.4979 22.595C35.6206 22.786 35.6772 23.0024 35.6184 23.2552L35.6171 23.2608L35.6156 23.2663L35.6128 23.2768C35.6127 23.2774 35.6125 23.278 35.6124 23.2787C35.5558 23.5009 35.4248 23.6897 35.2724 23.8689C35.1213 24.0465 34.9135 24.2543 34.6598 24.508L34.5091 24.6586C33.771 25.3968 33.2358 25.9325 32.8967 26.3294C32.7888 26.4558 32.7077 26.5602 32.649 26.646C32.6856 26.6373 32.7265 26.6267 32.7719 26.614C33.188 26.4972 33.8046 26.253 34.6699 25.9096C34.6699 25.9096 34.67 25.9096 34.6699 25.9096L37.3158 24.8588C37.8791 24.6354 38.2716 24.4791 38.5521 24.3317C38.8311 24.1852 38.9366 24.0783 38.9857 23.9869C38.9858 23.9867 38.986 23.9865 38.9861 23.9863L38.9927 23.9739C38.993 23.9731 38.9934 23.9724 38.9938 23.9717C39.0149 23.9295 39.0134 23.912 39.013 23.9066C39.0122 23.8968 39.0071 23.8661 38.9689 23.8038C38.8808 23.6602 38.707 23.4826 38.4025 23.1781L38.3806 23.1563C38.2393 23.015 38.0913 22.8672 37.9946 22.7166C37.8719 22.5256 37.8153 22.3091 37.8741 22.0564L37.8754 22.0508L37.8769 22.0452L37.8796 22.0348C37.8798 22.0342 37.8799 22.0335 37.8801 22.0329C37.9367 21.8107 38.0677 21.6219 38.2201 21.4427C38.3712 21.265 38.5789 21.0573 38.8327 20.8035L38.9833 20.6529C39.7214 19.9148 40.2567 19.3791 40.5957 18.9821C40.7038 18.8557 40.7849 18.7512 40.8436 18.6655C40.8069 18.6742 40.7659 18.6848 40.7205 18.6975ZM41.4951 17.9305C41.6168 18.0096 41.698 18.1244 41.7385 18.2543C41.8157 18.5024 41.73 18.7395 41.6388 18.9124C41.5421 19.0957 41.3922 19.2944 41.2105 19.5072C40.8482 19.9314 40.29 20.4896 39.5703 21.2093L39.4167 21.3629C39.1476 21.632 38.9633 21.8167 38.836 21.9664C38.708 22.1169 38.6739 22.1917 38.6634 22.2328L38.663 22.2347L38.6625 22.2365L38.6607 22.2434C38.6599 22.2471 38.6596 22.2497 38.6594 22.2514C38.6609 22.2553 38.665 22.2644 38.6749 22.2798C38.7184 22.3476 38.8008 22.4331 38.9742 22.6064L39.0051 22.6373C39.2673 22.8995 39.5134 23.1453 39.6579 23.381C39.7389 23.5129 39.8042 23.6653 39.8187 23.8396C39.8335 24.0185 39.792 24.1858 39.7132 24.3406L39.7118 24.3433L39.6999 24.3658L39.6988 24.3678C39.5354 24.6732 39.2568 24.8748 38.9281 25.0475C38.6045 25.2175 38.1711 25.3893 37.6343 25.6023L37.6142 25.6102L34.9683 26.661L34.9361 26.6738C34.1065 27.003 33.4516 27.263 32.9902 27.3924C32.7621 27.4564 32.5337 27.5031 32.3363 27.4884C32.2331 27.4808 32.1105 27.4546 31.9973 27.381C31.8757 27.3019 31.7944 27.1871 31.754 27.0572C31.6767 26.8092 31.7625 26.572 31.8537 26.3991C31.9504 26.2159 32.1002 26.0171 32.282 25.8043C32.6443 25.3801 33.2025 24.822 33.9221 24.1023L34.0757 23.9487C34.3449 23.6795 34.5292 23.4948 34.6565 23.3451C34.7845 23.1946 34.8186 23.1199 34.829 23.0787L34.8295 23.0769L34.83 23.0751L34.8318 23.0682C34.8325 23.0645 34.8329 23.0618 34.8331 23.0602C34.8316 23.0562 34.8275 23.0472 34.8176 23.0318C34.7741 22.964 34.6917 22.8785 34.5183 22.7051L34.4874 22.6742C34.2251 22.4121 33.9791 22.1662 33.8345 21.9306C33.7536 21.7987 33.6883 21.6462 33.6738 21.472C33.659 21.2931 33.7005 21.1258 33.7793 20.971L33.7798 20.9701C33.7844 20.961 33.7892 20.9519 33.7941 20.9429C33.9576 20.638 34.2359 20.4367 34.5642 20.2643C34.876 20.1005 35.2899 19.9349 35.8003 19.7323L35.8007 19.7319L38.5502 18.6402C39.3826 18.3097 40.0396 18.0488 40.5022 17.9191C40.7304 17.8551 40.9588 17.8084 41.1562 17.8231C41.2594 17.8308 41.382 17.8569 41.4951 17.9305ZM16.9442 55.5531H35.6065L34.064 61.9283L33.9206 62.3867L33.9132 62.4045C33.6169 63.1082 33.1272 63.7146 32.5003 64.1547C31.8735 64.5949 31.1347 64.8512 30.3685 64.8947L30.3627 64.895L29.8942 64.9082H22.49L21.9784 64.8768L21.9666 64.8753C20.3762 64.683 19.0322 63.6383 18.5608 62.1935L18.5578 62.1842L18.4415 61.7586L16.9442 55.5531ZM17.9709 56.3615L19.2245 61.5572L19.3324 61.9518C19.6992 63.0633 20.7538 63.9101 22.0521 64.0713L22.5147 64.0997H29.8829L30.328 64.0872C30.9424 64.0513 31.534 63.8453 32.0357 63.4931C32.5337 63.1434 32.923 62.6637 33.1607 62.108L33.2845 61.7123L34.5791 56.3615H17.9709Z" fill="#0F4483"/>
</svg>
