<svg width="43" height="30" viewBox="0 0 43 30" fill="none" xmlns="http://www.w3.org/2000/svg">
<path d="M39.8889 1H2.55556C1.69645 1 1 1.69645 1 2.55556V27.4444C1 28.3036 1.69645 29 2.55556 29H39.8889C40.748 29 41.4444 28.3036 41.4444 27.4444V2.55556C41.4444 1.69645 40.748 1 39.8889 1Z" stroke="black" stroke-width="2" stroke-linecap="round" stroke-linejoin="round"/>
<path d="M25.8888 7.22223H8.77772C7.91861 7.22223 7.22217 7.91867 7.22217 8.77778V21.2222C7.22217 22.0813 7.91861 22.7778 8.77772 22.7778H25.8888C26.7479 22.7778 27.4444 22.0813 27.4444 21.2222V8.77778C27.4444 7.91867 26.7479 7.22223 25.8888 7.22223Z" stroke="black" stroke-width="2" stroke-linecap="round" stroke-linejoin="round"/>
<path d="M33.6666 8.77777H35.2222M33.6666 13.4444H35.2222" stroke="black" stroke-width="2" stroke-linecap="round" stroke-linejoin="round"/>
</svg>
