<svg width="31" height="30" viewBox="0 0 31 30" fill="none" xmlns="http://www.w3.org/2000/svg">
<path d="M9.5 16C9.10218 16 8.72064 16.158 8.43934 16.4393C8.15804 16.7206 8 17.1022 8 17.5C8 17.8978 8.15804 18.2794 8.43934 18.5607C8.72064 18.842 9.10218 19 9.5 19C9.89782 19 10.2794 18.842 10.5607 18.5607C10.842 18.2794 11 17.8978 11 17.5C11 17.1022 10.842 16.7206 10.5607 16.4393C10.2794 16.158 9.89782 16 9.5 16ZM14 17.5C14 17.1022 14.158 16.7206 14.4393 16.4393C14.7206 16.158 15.1022 16 15.5 16C15.8978 16 16.2794 16.158 16.5607 16.4393C16.842 16.7206 17 17.1022 17 17.5C17 17.8978 16.842 18.2794 16.5607 18.5607C16.2794 18.842 15.8978 19 15.5 19C15.1022 19 14.7206 18.842 14.4393 18.5607C14.158 18.2794 14 17.8978 14 17.5ZM20 17.5C20 17.1022 20.158 16.7206 20.4393 16.4393C20.7206 16.158 21.1022 16 21.5 16C21.8978 16 22.2794 16.158 22.5607 16.4393C22.842 16.7206 23 17.1022 23 17.5C23 17.8978 22.842 18.2794 22.5607 18.5607C22.2794 18.842 21.8978 19 21.5 19C21.1022 19 20.7206 18.842 20.4393 18.5607C20.158 18.2794 20 17.8978 20 17.5Z" fill="black"/>
<path d="M30.1653 11.964L17.2486 0.641003C17.2423 0.635885 17.2363 0.630372 17.2308 0.624502C16.7553 0.222668 16.1355 0 15.4927 0C14.8499 0 14.2302 0.222668 13.7546 0.624502L13.7369 0.641003L0.834739 11.964C0.571559 12.1888 0.361479 12.462 0.217794 12.7662C0.0741081 13.0703 -5.43192e-05 13.3989 2.98501e-08 13.7311V27.5998C2.98501e-08 28.2364 0.272172 28.8469 0.756641 29.297C1.24111 29.7471 1.89819 30 2.58333 30H28.4167C29.1018 30 29.7589 29.7471 30.2434 29.297C30.7278 28.8469 31 28.2364 31 27.5998V13.7311C31.0001 13.3989 30.9259 13.0703 30.7822 12.7662C30.6385 12.462 30.4284 12.1888 30.1653 11.964ZM28.4167 27.5998H2.58333V13.7311L2.60109 13.7161L15.5 2.39765L28.4005 13.7131L28.4183 13.7281L28.4167 27.5998Z" fill="black"/>
</svg>
