<svg width="19" height="26" viewBox="0 0 19 26" fill="none" xmlns="http://www.w3.org/2000/svg">
<path fill-rule="evenodd" clip-rule="evenodd" d="M2.78571 1.85714C2.27288 1.85714 1.85714 2.27288 1.85714 2.78571V21.3571C1.85714 21.87 2.27288 22.2857 2.78571 22.2857H15.7857C16.2985 22.2857 16.7143 21.87 16.7143 21.3571V2.78571C16.7143 2.27288 16.2985 1.85714 15.7857 1.85714H2.78571ZM0 2.78571C0 1.24721 1.24721 0 2.78571 0H15.7857C17.3242 0 18.5714 1.24721 18.5714 2.78571V21.3571C18.5714 22.8956 17.3242 24.1429 15.7857 24.1429H2.78571C1.24721 24.1429 0 22.8956 0 21.3571V2.78571Z" fill="black"/>
<path fill-rule="evenodd" clip-rule="evenodd" d="M4.64286 4.6427C5.15569 4.6427 5.57143 5.05844 5.57143 5.57127V6.49984C5.57143 7.01268 5.15569 7.42841 4.64286 7.42841C4.13002 7.42841 3.71429 7.01268 3.71429 6.49984V5.57127C3.71429 5.05844 4.13002 4.6427 4.64286 4.6427ZM0 11.1427C0 10.6299 0.415736 10.2141 0.928571 10.2141H17.6429C18.1557 10.2141 18.5714 10.6299 18.5714 11.1427C18.5714 11.6555 18.1557 12.0713 17.6429 12.0713H0.928571C0.415736 12.0713 0 11.6555 0 11.1427ZM3.71429 22.2856C4.22712 22.2856 4.64286 22.7013 4.64286 23.2141V25.0713C4.64286 25.5841 4.22712 25.9998 3.71429 25.9998C3.20145 25.9998 2.78571 25.5841 2.78571 25.0713V23.2141C2.78571 22.7013 3.20145 22.2856 3.71429 22.2856ZM14.8571 22.2856C15.37 22.2856 15.7857 22.7013 15.7857 23.2141V25.0713C15.7857 25.5841 15.37 25.9998 14.8571 25.9998C14.3443 25.9998 13.9286 25.5841 13.9286 25.0713V23.2141C13.9286 22.7013 14.3443 22.2856 14.8571 22.2856Z" fill="black"/>
</svg>
