<svg width="36" height="28" viewBox="0 0 36 28" fill="none" xmlns="http://www.w3.org/2000/svg">
<path d="M33.6 20.4167V2.91667C33.6 2.75868 33.5406 2.62196 33.4219 2.50651C33.3031 2.39106 33.1625 2.33333 33 2.33333H3C2.8375 2.33333 2.69688 2.39106 2.57812 2.50651C2.45937 2.62196 2.4 2.75868 2.4 2.91667V20.4167C2.4 20.5747 2.45937 20.7114 2.57812 20.8268C2.69688 20.9423 2.8375 21 3 21H33C33.1625 21 33.3031 20.9423 33.4219 20.8268C33.5406 20.7114 33.6 20.5747 33.6 20.4167ZM36 2.91667V20.4167C36 21.2187 35.7063 21.9054 35.1188 22.4766C34.5313 23.0477 33.825 23.3333 33 23.3333H19.2V25.6667H25.8C25.975 25.6667 26.1188 25.7214 26.2313 25.8307C26.3438 25.9401 26.4 26.0799 26.4 26.25V27.4167C26.4 27.5868 26.3438 27.7266 26.2313 27.8359C26.1188 27.9453 25.975 28 25.8 28H10.2C10.025 28 9.88125 27.9453 9.76875 27.8359C9.65625 27.7266 9.6 27.5868 9.6 27.4167V26.25C9.6 26.0799 9.65625 25.9401 9.76875 25.8307C9.88125 25.7214 10.025 25.6667 10.2 25.6667H16.8V23.3333H3C2.175 23.3333 1.46875 23.0477 0.88125 22.4766C0.29375 21.9054 0 21.2187 0 20.4167V2.91667C0 2.11458 0.29375 1.42795 0.88125 0.856771C1.46875 0.28559 2.175 0 3 0H33C33.825 0 34.5313 0.28559 35.1188 0.856771C35.7063 1.42795 36 2.11458 36 2.91667Z" fill="black"/>
</svg>
